<?xml version="1.0" encoding="utf-8"?>
<!-- Generator: Adobe Illustrator 16.0.0, SVG Export Plug-In . SVG Version: 6.00 Build 0)  -->
<!DOCTYPE svg PUBLIC "-//W3C//DTD SVG 1.1//EN" "http://www.w3.org/Graphics/SVG/1.1/DTD/svg11.dtd">
<svg version="1.1" xmlns="http://www.w3.org/2000/svg" xmlns:xlink="http://www.w3.org/1999/xlink" x="0px" y="0px" width="250px"
	 height="250.5px" viewBox="0 0 250 250.5" enable-background="new 0 0 250 250.5" xml:space="preserve">
<g id="Layer_2" display="none">
</g>
<g id="Layer_1">
	<circle opacity="0.3" fill="#FFFFFF" cx="125.274" cy="125.365" r="124.667"/>
	<radialGradient id="SVGID_1_" cx="125.2744" cy="125.3643" r="115.917" gradientUnits="userSpaceOnUse">
		<stop  offset="0" style="stop-color:#FBF5E8"/>
		<stop  offset="1" style="stop-color:#F8F7F6"/>
	</radialGradient>
	<circle fill="url(#SVGID_1_)" cx="125.274" cy="125.365" r="115.917"/>
	<path fill="#787265" d="M105.525,200.691c1.209-0.035,2.24,1.023,2.275,2.33c0.018,1.266-0.869,2.256-2.087,2.324
		c-1.45,0.068-2.362-0.818-2.374-2.289C103.317,201.672,104.188,200.734,105.525,200.691"/>
	<path fill="#787265" d="M147.105,201.025c1.367-0.016,2.301,0.922,2.331,2.367c0.03,1.256-1.022,2.332-2.237,2.322
		c-1.277-0.025-2.193-0.988-2.211-2.322C144.967,202.008,145.822,201.043,147.105,201.025"/>
	<path fill="#787265" d="M126.695,206.447c1.191,0.033,2.254,1.213,2.199,2.436c-0.061,1.264-1.023,2.287-2.146,2.279
		c-1.339-0.018-2.371-1.109-2.354-2.453C124.402,207.463,125.465,206.43,126.695,206.447"/>
	<path fill="#787265" d="M165.041,213.701c-1.309,0.025-2.324-0.947-2.342-2.213c-0.033-1.402,0.896-2.391,2.299-2.383
		c1.264,0,2.229,0.98,2.279,2.289C167.311,212.66,166.305,213.701,165.041,213.701"/>
	<path fill="#787265" d="M88.32,208.332c1.209-0.053,2.232,1.014,2.264,2.322c0.029,1.266-0.869,2.256-2.078,2.314
		c-1.445,0.078-2.362-0.799-2.384-2.289C86.113,209.287,86.979,208.365,88.32,208.332"/>
	<path fill="#787265" d="M66.108,99.969c-1.269-2.763-2.538-5.507-3.562-7.719c-2.195-1.333-3.891-2.366-5.744-3.476
		c-5.795,1.023-11.139-0.49-15.935-4.269c2.069-3.2,5.919-4.646,12.175-4.706c-1.234-1.841-2.654-3.604-3.648-5.575
		c-1.032-2.039-1.26-4.337-0.951-6.841c3.843,0.56,7.051,2.211,10.429,4.629c-1.729-5.713-0.831-10.531,3.003-15.074
		c5.297,5.661,7.568,12.098,6.651,19.652c2.892,2.649,3.997,5.782,2.956,9.594c-0.139,0.499,0.077,1.196,0.34,1.687
		c1.565,2.899,3.188,5.765,4.797,8.63c0.193-0.095,0.391-0.189,0.584-0.293c-0.297-0.671-0.477-1.445-0.912-2.03
		c-3.771-5.016-3.084-11.461-0.146-16.056c0.146-0.215,0.322-0.413,0.761-0.964c1.184,1.635,2.418,3.046,3.301,4.664
		c2.749,4.964,3.309,9.998,0.133,15.109c-1.402,2.245-0.594,4.327,2.298,6.358c1.476-7.478,1.604-14.929,1.132-22.483
		c-10.23-7.606-17.623-16.898-17.506-30.881c4.443,1.479,7.898,3.838,10.463,7.503c2.654,3.812,2.753,8.002,1.953,12.605
		c1.316,1.05,2.723,2.177,4.125,3.304c0.129-0.077,0.271-0.163,0.404-0.24c-0.442-2.856-0.868-5.714-1.346-8.57
		c-0.452-2.805-0.964-5.602-1.52-8.759c4.363,2.426,6.965,5.979,9.367,9.731c2.562,3.992,3.031,8.269,1.647,12.932
		c1.065,0.551,2.103,1.085,3.411,1.756c2.633-5.662,3.377-11.246,1.256-17.184c-3.11-0.817-5.301-2.684-6.475-5.799
		c-7.305-0.646-12.941-4.07-17.093-10.574c5.954-1.738,11.362-0.758,17.055,1.41c-1.708-4.594-2.482-9.034-0.899-13.869
		c4.701,2.168,7.955,5.412,9.551,10.367c1.084-5.721,4.307-9.766,8.991-12.854c2.122,4.845,2.978,13.276-2.443,19.024
		c1.484,3.08,1.183,6.152-0.642,9.12c3.924,7.735,3.773,15.729,1.604,24.006c1.124,0.801,2.216,1.558,3.575,2.513
		c1.52-3.846,4.909-6.789,3.834-11.332c-0.225-0.955-0.719-1.936-1.33-2.71c-3.441-4.337-5.679-9.112-5.455-14.782
		c0.125-3.304,1.016-6.401,2.926-9.146c5.382,4.044,9.004,11.314,6.29,18.869c-0.71,2.005-1.394,3.992-0.594,6.178
		c1.553-1.772,3.377-13.026,3.063-18.791c-3.589-3.511-5.447-7.839-4.699-13.002c0.715-4.965,3.107-9.051,7.018-12.51
		c1.438,2.891,2.129,5.824,2.611,8.802c1.588,10.032,0.551,19.919-1.463,29.771c-1.527,7.521-3.726,14.834-6.607,21.941
		c-0.225,0.542-0.396,1.109-0.543,1.515c1.785,2.306,3.459,4.482,5.133,6.65c0.115-0.025,0.236-0.052,0.357-0.068
		c-0.242-1.05-0.344-2.143-0.724-3.123c-2.426-6.118-1.444-11.935,1.55-17.545c0.202-0.369,0.48-0.696,0.834-1.188
		c1.953,2.564,2.771,5.378,3.377,8.286c0.879,4.165-0.219,8.002-1.823,11.729c-1.433,3.304-1.546,6.418-0.245,9.886
		c1.492,3.992,2.279,8.243,3.377,12.441c0.206-1.101,0.344-2.28,0.641-3.416c0.921-3.562,1.803-7.141,2.904-10.651
		c0.697-2.255,0.619-4.362-0.172-6.522c-0.891-2.435-1.979-4.845-2.564-7.374c-1.234-5.24,0.25-10.041,3.137-15.015
		c0.877,1.627,1.742,2.874,2.262,4.242c1.937,5.024,2.436,10.102,0.332,15.247c-0.349,0.86-0.4,1.833-0.25,2.874
		c1.666-2.194,3.312-4.414,4.947-6.583c-1.531-4.302-3.256-8.526-4.564-12.88c-3.309-10.962-5.713-22.088-5.364-33.644
		c0.138-4.732,0.61-9.422,2.228-13.921c0.237-0.663,0.534-1.282,0.814-1.928c8.389,5.163,9.778,17.948,2.787,25.719
		c-0.008,6.307,1.166,12.553,3.141,18.653c0.856-1.678,0.572-3.33-0.099-4.947c-1.321-3.252-1.769-6.608-1.046-10.067
		c0.878-4.146,3.407-7.278,6.402-10.299c1.814,1.944,2.494,4.207,3.016,6.53c1.367,6.109-0.262,11.642-4.01,16.357
		c-2.818,3.562-3.046,6.857-0.813,10.583c0.913,1.522,1.729,3.114,2.685,4.836c1.205-0.869,2.285-1.644,3.429-2.487
		c-2.121-8.208-2.551-16.271,1.272-24.135c-1.883-2.908-2.15-5.979-0.743-9.215c-5.442-5.628-4.612-12.227-3.08-19.283
		c5.024,3.158,8.32,7.193,9.417,12.691c1.248-1.97,2.285-4.146,3.842-5.85c1.523-1.679,3.588-2.857,5.705-4.483
		c1.617,5.067,1.17,9.481-0.611,14.206c5.602-1.988,11.031-3.063,17.045-1.291c-3.939,6.6-9.568,9.912-16.906,10.712
		c-1.119,3.003-3.254,4.938-6.402,5.739c-2.232,5.945-1.248,11.538,1.402,17.234c1.152-0.567,2.186-1.093,3.27-1.644
		c-2.84-10.583,3.484-16.821,10.205-22.87c0.197,0.052,0.387,0.12,0.576,0.181c-0.844,5.653-1.686,11.332-2.521,17.011
		c0.139,0.104,0.275,0.206,0.432,0.318c1.307-1.041,2.615-2.073,3.924-3.106c-0.818-5.016-0.725-9.68,2.52-13.81
		c2.521-3.184,5.861-4.982,9.525-6.548c1.266,8.975-2.779,20.582-16.623,31.019c-0.914,4.543-0.068,18.723,1.307,22.457
		c2.514-1.247,3.494-3.915,2.1-6.135c-3.664-5.808-2.684-11.357,0.834-16.77c0.664-1.024,1.438-1.962,2.316-3.133
		c2.451,3.038,3.285,6.265,3.398,9.758c0.111,3.511-1.816,6.315-3.467,9.224c0.205,0.087,0.412,0.189,0.627,0.293
		c1.771-3.123,3.537-6.221,5.273-9.284c-1.324-4.087-0.791-7.58,2.566-10.489c-0.947-7.494,0.971-14.119,6.436-19.858
		c3.846,4.449,4.99,9.155,3.51,14.593c1.738-0.938,3.252-1.832,4.861-2.538c1.602-0.723,3.305-1.222,5.24-1.91
		c0.629,5.18-0.912,9.189-4.697,12.898c5.266-0.646,9.293,0.852,12.785,4.543c-4.922,4.052-10.256,5.575-16.064,4.629
		c-1.9,1.145-3.639,2.194-5.695,3.441c-0.973,2.194-2.109,4.75-3.252,7.313c3.225-2.882,6.307-5.824,10.582-6.969
		c4.148-1.102,8.295-1.016,12.598-0.198c-1.584,5.103-4.99,8.226-9.285,10.66c-3.252,1.824-6.59,2.169-10.188,1.239
		c-3.803-0.989-6.297,0.336-8.002,3.933c-0.602,1.29-1.316,2.564-2.211,4.285c2.625-0.112,4.826-0.052,6.988-0.353
		c2.83-0.388,5.635-0.981,8.422-1.644c1.652-0.396,2.891-1.463,3.527-3.115c2.221-5.834,7.84-7.09,13.061-5.266
		c2.652,0.929,5.096,2.323,6.895,5.008c-14.207,5.137-28.488,8.604-43.736,7.451c3.889-7.71,7.676-15.213,11.529-22.854
		c-1.299-0.646-2.186-1.075-3.219-1.592c-3.553,7.297-8.285,13.604-13.697,19.412c-0.189,0.181-0.43,0.31-0.998,0.714
		c-2.426-9.232-2.994-18.396-2.719-27.672c-0.172-0.06-0.328-0.129-0.5-0.206c-0.283,0.551-0.809,1.102-0.809,1.652
		c0,5.153,0.096,10.308,0.172,15.47c0.086,5.146,0.672,10.352-1.135,15.333c-3.838,10.73-11.178,17.595-22.393,20.056
		c-0.525,0.121-1.08,0.121-1.617,0.129c-0.479,0.018-0.96-0.033-1.726-0.076c0-1.473,0.038-2.865-0.009-4.252
		c-0.297-7.984,0.396-15.839,2.715-23.532c2.521-8.338,7.188-15.152,14.148-20.357c4.947-3.691,10.051-7.185,15.008-10.876
		c1.797-1.343,3.355-3.003,4.818-4.775c-5.809,5.18-12.65,8.664-19.455,12.631c-3.854-6.823-4.951-13.672-3.016-21.098
		c-0.629-0.258-1.209-0.49-1.983-0.809c-3.292,7.77-2.319,15.428-0.034,23.076c-2.346,1.919-4.591,3.777-6.982,5.748
		c-3.559-5.567-6.737-11.203-8.703-17.458c-1.949-6.204-3.08-12.536-3.111-19.196c-0.498-0.112-0.929-0.181-1.631-0.31
		c0.268,7.09,1.545,13.792,3.752,20.254c2.194,6.437,4.797,12.761,7.292,19.291c-7.882,8.673-10.136,19.781-11.528,31.251h-6.08
		c-1.355-11.427-3.91-22.44-12.162-31.362c5.812-12.271,10.235-24.953,10.781-38.849h-1.669
		c0.146,13.405-3.881,25.434-11.319,36.568c-2.35-1.944-4.604-3.77-6.926-5.688c2.229-7.623,2.955-15.221-0.318-22.956
		c-0.697,0.258-1.316,0.499-2.057,0.8c2.078,7.236,1.14,14.051-2.676,20.856c-2.19-1.161-4.26-2.263-6.462-3.433
		c-0.228,0.378-0.448,0.766-0.577,0.946c3.704,2.934,7.283,5.704,10.816,8.562c5.334,4.293,8.418,10.109,10.643,16.434
		c3.184,9.018,3.602,18.379,3.239,27.828c-0.008,0.197-0.099,0.404-0.185,0.705c-3.132,0.223-6.045-0.533-8.785-1.867
		c-11.521-5.568-17.939-14.542-18.017-27.621c-0.048-7.271,0.003-14.55-0.013-21.846c0-0.731,0.197-1.756-1.369-1.644
		c0.396,9.481-0.115,18.895-2.357,28.549c-6.294-6.006-11.005-12.751-14.902-20.229c-0.984,0.465-1.896,0.895-3.029,1.42
		c3.408,7.787,7.207,15.29,11.861,22.87c-16.055,1.265-30.752-3.158-45.473-7.494c-0.044-0.198-0.091-0.422-0.139-0.629
		c1.613-0.895,3.176-1.97,4.875-2.667c3.217-1.299,6.479-2.556,10.075-1.721c3.141,0.74,5.146,2.701,6.604,5.523
		c0.602,1.171,1.686,2.487,2.852,2.9c5.047,1.78,10.355,2.048,16.103,2.021c-1.411-2.538-2.121-5.162-4.077-6.995
		c-1.898-1.772-4.277-1.824-6.729-1.152c-3.304,0.903-6.384,0.274-9.396-1.326c-3.48-1.841-6.467-4.181-8.438-7.648
		c-0.438-0.783-0.782-1.618-1.252-2.616c8.304-1.376,15.674-0.49,21.594,5.859c0.551,0.577,1.312,0.973,1.965,1.446
		c-0.06,0.025-0.107,0.052-0.15,0.095C66.018,100.021,66.061,99.995,66.108,99.969 M205.377,104.77
		c-1.145-0.318-1.893,0.181-2.373,1.179h-0.078c-0.078,0.061-0.01,0.009,0.043-0.043c0.791-0.396,1.584-0.783,2.375-1.196
		c0.051-0.103,0.104-0.206,0.033-0.077C205.361,104.512,205.377,104.632,205.377,104.77 M102.854,104.056l0.082-0.052l-0.104,0.034
		c-0.106-0.43-0.12-0.93-0.327-1.291c-1.742-2.934-4.133-5.266-6.908-7.219c-0.263-0.181-0.611-0.258-0.973-0.412
		c0.014,5.729,3.824,11.134,7.925,11.563c-1.833-1.755-3.382-3.235-5.013-4.792c0.525-0.474,0.986-0.896,1.559-1.395
		C100.427,101.758,101.636,102.903,102.854,104.056 M177.018,68.572c3.234-4.612,5.266-9.654,5.455-15.419
		c-5.076,2.125-9.086,8.218-7.545,12.709c0.799-2.143,1.582-4.199,2.418-6.445c0.799,0.302,1.461,0.56,2.201,0.853
		c-0.326,0.929-0.645,1.678-0.859,2.461c-0.559,1.944-1.066,3.897-1.602,5.833l-0.043-0.086L177.018,68.572z M89.865,84.826
		c-0.154,0.508-0.254,0.662-0.242,0.8c0.151,6.564,0,13.147,0.557,19.679c0.787,8.948,4.98,16.279,12.152,21.76
		c2.509,1.918,5.408,3.08,9.086,3.492c-0.399-1.35-0.546-2.477-1.031-3.398c-0.912-1.771-2.686-2.375-4.439-3.037
		c-2.01-0.749-4.122-1.472-5.855-2.668c-3.718-2.615-5.585-6.548-6.746-10.824c-0.297-1.093-0.293-2.271-0.443-3.579
		c8.961,2.005,14.64,7.253,17.544,15.677c0.211-0.31,0.271-0.404,0.259-0.508c-0.259-2.323-0.518-4.638-0.791-6.952
		c-0.389-3.287-2.186-5.205-5.435-5.773c-5.175-0.869-9.091-3.347-10.94-8.526c-1.07-3.012-1.76-6.075-1.346-9.896
		c2.18,1.266,4.172,2.125,5.807,3.451c3.709,2.959,6.324,6.814,8.282,11.125c0.326,0.723,0.834,1.368,1.26,2.048
		c0.159-0.121,0.323-0.224,0.474-0.353C105.284,97.285,97.553,91.245,89.865,84.826 M141.409,122.142
		c0.202,0.086,0.409,0.181,0.61,0.258c2.676-8.483,8.463-13.431,16.963-15.462c0.086,0.275,0.207,0.482,0.207,0.672
		c-0.207,5.661-4.164,14.196-11.379,16.142c-1.497,0.413-3.016,0.955-4.341,1.729c-1.772,1.023-2.46,2.754-2.284,4.74
		c0.228,0.131,0.322,0.232,0.413,0.225c0.331-0.018,0.657-0.018,0.968-0.094c4.285-1.102,8.036-3.064,11.053-6.437
		c5.605-6.272,8.461-13.561,8.617-21.933c0.102-5.472,0-10.962-0.027-16.442c0-0.181-0.146-0.345-0.336-0.774
		c-7.652,6.315-15.207,12.441-17.672,22.612c0.624-0.482,1.105-1.076,1.424-1.755c2.112-4.475,4.723-8.562,8.635-11.668
		c1.6-1.273,3.381-2.211,5.91-2.805c-0.344,2.719-0.42,5.059-0.963,7.279c-0.99,4-2.668,7.666-6.746,9.447
		c-1.674,0.723-3.476,1.161-5.257,1.583c-2.181,0.508-4.009,1.651-4.526,3.743C141.959,116.111,141.801,119.157,141.409,122.142
		 M63.454,78.286c-2.767,0.044-5.051,2.418-4.981,5.181c0.068,2.701,2.494,4.964,5.257,4.912c2.714-0.051,4.899-2.34,4.874-5.076
		C68.578,80.532,66.233,78.26,63.454,78.286 M97.621,59.667c2.732-0.018,4.85-2.237,4.824-5.06
		c-0.018-2.771-2.389-5.094-5.133-5.051c-2.711,0.034-4.832,2.289-4.797,5.137C92.545,57.524,94.756,59.675,97.621,59.667
		 M158.828,54.392c-0.008-2.892-2.186-5.146-4.955-5.163c-2.711-0.017-4.986,2.246-4.965,4.939c0.017,2.822,2.31,5.128,5.037,5.094
		C156.582,59.228,158.846,56.982,158.828,54.392 M188.324,88.009c2.77-0.026,5.041-2.212,5.076-4.87
		c0.035-2.754-2.264-4.99-5.111-4.99c-2.641,0-4.92,2.211-4.912,4.783C183.377,85.84,185.52,88.035,188.324,88.009 M121.025,50.856
		c0.439-5.877-0.013-11.643-1.535-17.484c-4.789,4.974-5.073,16.504-0.582,18.232c-0.352-3.27-0.723-6.505-1.088-9.869h2.25
		C120.393,44.797,120.711,47.827,121.025,50.856 M132.354,51.277c4.413-3.786,3.708-14.911-0.938-18.069
		c-1.333,5.594-1.729,11.212-1.3,16.926c0.293-2.994,0.577-5.98,0.883-9.129c0.852,0.119,1.506,0.231,2.327,0.361
		C133.002,44.652,132.693,47.827,132.354,51.277 M61.961,101.819c-3.26-1.196-6.225-2.271-9.301-3.39
		c0.336-0.861,0.563-1.446,0.878-2.246c2.194,0.774,4.255,1.488,6.311,2.194c-3.381-3.399-10.295-5.146-13.384-3.588
		C49.408,99.392,56.459,104.159,61.961,101.819 M66.289,75.266c0.98-3.924-1.363-11.788-4.324-14.396
		c-0.111,0.095-0.279,0.172-0.34,0.275c-2.188,4.432-1.768,8.82,0.211,13.156c0.164,0.353,0.754,0.525,1.511,0.989
		c-0.263-2.59-0.474-4.706-0.706-6.917c0.641-0.078,1.105-0.13,1.803-0.198c0.164,1.385,0.361,2.633,0.461,3.906
		C65.115,75,65.102,75,66.289,75.266 M68.742,53.333c0.559,6.015,2.49,11.22,6.293,15.712c-1.01-2.797-2.018-5.593-3.066-8.519
		c0.848-0.25,1.436-0.43,2.094-0.611c0.908,2.289,1.747,4.44,2.59,6.582C77.514,60.819,74.387,56.113,68.742,53.333 M185.674,74.835
		c1.602-2.073,0.568-4.818,1.721-7.133c0.551,0.077,1.049,0.146,1.729,0.241c-0.18,2.298-0.352,4.457-0.523,6.763
		c3.184-1.608,3.631-10.429,0.834-14.24C186.121,64.787,185.184,69.595,185.674,74.835 M83.566,61.534
		c0.844,6.358,1.661,12.554,2.482,18.766c0.061,0,0.125,0,0.186,0.009V69.793h2.168v9.043C91.758,74.5,89.637,67.418,83.566,61.534
		 M102.174,114.768c1.381,1.851,2.658,3.571,3.949,5.317c0.146-0.154,0.275-0.292,0.421-0.43c-1.544-4.104-7.481-9.241-10.897-9.456
		c0.908,5.128,5.086,11.254,9.418,11.168c-1.747-1.704-3.33-3.227-4.978-4.81C100.611,116.111,101.051,115.732,102.174,114.768
		 M193.58,97.526c1.594-0.577,3.193-1.146,4.982-1.799c0.361,0.998,0.672,1.772,1.025,2.728c-3.039,1.118-5.809,2.134-8.58,3.158
		c5.043,1.195,12.09-2.444,14.275-7.22C200.902,93.783,197.031,94.763,193.58,97.526 M147.453,121.471
		c4.746-0.344,8.846-7.873,8.881-11.581c-4.979,1.737-8.235,5.257-10.623,9.773c1.579-1.479,3.154-2.968,4.974-4.681
		c0.641,0.594,1.127,1.042,1.824,1.687C150.62,118.459,149.071,119.931,147.453,121.471 M110.024,52.146
		c-2.296,3.89-1.807,11.556,0.994,14.18c-0.435-2.633-0.843-5.128-1.261-7.727c0.813-0.12,1.42-0.224,2.151-0.353
		c0.478,2.624,0.915,5.076,1.407,7.805C115.145,62.015,113.438,55.167,110.024,52.146 M138.109,65.431
		c0.447-2.624,0.859-5.085,1.29-7.666c0.904,0.137,1.497,0.232,2.268,0.344c-0.409,2.633-0.792,5.06-1.2,7.667
		c2.689-2.487,3.098-10.988,0.684-13.939C137.92,54.736,136.229,61.964,138.109,65.431 M162.33,76.695
		c0.182-0.069,0.543-0.121,0.543-0.207c0.205-2.332,0.377-4.646,0.549-7.073h1.895c0.086,1.722,0.172,3.391,0.258,5.06
		c0.172,0.018,0.344,0.018,0.533,0.026c0.602-4.312,1.203-8.622,1.867-13.38C162.752,66.576,160.299,72.297,162.33,76.695
		 M102.612,48.653c3.407-1.644,5.076-9.413,3.271-13.164c-2.85,1.437-6.601,9.412-5.168,11.408c0.775-1.9,1.523-3.725,2.314-5.67
		c0.762,0.336,1.321,0.594,1.988,0.904C104.238,44.256,103.494,46.252,102.612,48.653 M76.851,47.835
		c1.733,3.364,8.798,7.099,12.353,6.351c-1.683-1.79-4.414-1.438-6.501-2.736c0.22-0.654,0.431-1.291,0.658-1.988
		c2.237,0.594,4.307,1.145,6.38,1.687c0.034-0.146,0.069-0.317,0.107-0.464C85.911,48.36,81.566,47.905,76.851,47.835
		 M150.418,46.141c0.744-3.744-3.068-10.11-5.335-10.997c-1.23,4.087-0.021,11.831,3.352,12.769
		c-0.835-2.193-1.601-4.216-2.414-6.367c0.801-0.266,1.42-0.49,2.151-0.73C148.973,42.708,149.695,44.419,150.418,46.141
		 M36.914,106.344c4.341,1.153,8.549,2.28,12.756,3.399c0.035-0.086,0.073-0.198,0.116-0.302c-1.669-0.843-3.334-1.694-5.18-2.649
		c0.469-0.74,0.848-1.334,1.308-2.04c1.579,0.844,3.029,1.618,4.802,2.564C48.482,103.187,41.918,102.593,36.914,106.344
		 M157.229,95.013c-2.883,1.093-7.805,6.479-8.055,8.793c0.146,0.129,0.293,0.293,0.439,0.439c0.977-1.368,1.962-2.736,3.024-4.225
		c0.882,0.834,1.355,1.29,1.974,1.875c-1.643,1.558-3.145,3.012-4.779,4.569C153.847,106.095,157.934,99.565,157.229,95.013
		 M168.715,51.277c-1.988,0.568-3.76,1.05-5.516,1.566c-0.723,0.197-1.377,0.473-0.637,1.479c4.611-0.86,8.646-2.667,11.789-6.789
		c-4.75-0.103-8.916,0.534-12.734,2.677c0.033,0.146,0.076,0.31,0.102,0.447c2.082-0.56,4.148-1.127,6.281-1.729
		C168.275,49.806,168.447,50.409,168.715,51.277 M49.352,85.54v-2.091c1.971-0.146,3.863-0.284,5.907-0.447
		c-2.216-2.143-9.314-1.429-10.716,1.222c3.501,2.435,9.084,3.484,11.594,1.884C53.887,84.662,51.623,85.918,49.352,85.54
		 M207.451,83.887c-3.158-2.685-7.822-3.175-10.463-1.238c1.971,0.129,3.795,0.258,5.723,0.396
		c-0.053,0.921-0.086,1.574-0.121,2.263c-1.273,0-2.34,0.026-3.408-0.017c-2.373-0.052-2.373-0.069-2.822,0.98
		C200.422,87.26,203.795,85.643,207.451,83.887 M54.648,72.96c0.886,0.791,1.557,1.488,2.33,2.064
		c0.677,0.517,1.441,0.896,2.178,1.334c0.094-0.181,0.197-0.361,0.302-0.533c-2.289-2.65-5.095-4.509-8.57-5.567
		c0.107,4.113,2.271,7.383,5.593,8.604c0.159-0.25,0.327-0.499,0.562-0.826c-1.298-1.119-2.541-2.194-3.9-3.364
		C53.68,74.061,54.093,73.588,54.648,72.96 M93.328,42.131c0.748,1.565,1.433,3.011,2.264,4.783c0.963-2.71-2.143-7.623-5.404-9.104
		c-0.49,3.648,0.418,6.918,1.742,10.119c0.28-0.043,0.564-0.078,0.852-0.12c0.293-1.722-1.199-3.244-1.135-5.06
		C92.158,42.553,92.688,42.372,93.328,42.131 M155.559,46.39c0.508-1.075,0.844-1.815,1.188-2.521
		c0.379-0.775,0.773-1.541,1.195-2.358c0.766,0.396,1.223,0.646,1.799,0.938c-0.283,0.877-0.568,1.678-0.791,2.512
		c-0.207,0.783-0.361,1.584-0.533,2.375c2.15-1.601,3.201-7.503,2.193-9.817C157.605,39.094,154.801,43.584,155.559,46.39
		 M198.709,74.293c-0.834,0.801-1.463,1.454-2.15,2.039c-1.455,1.239-1.473,1.23-1.041,2.031c3.191-1.196,5.688-5.292,5.051-8.277
		c-3.52,0.98-7.393,3.812-7.926,6.187c1.688-1.402,3.08-2.547,4.553-3.743C197.729,73.15,198.133,73.631,198.709,74.293
		 M121.533,79.809c-1.652,2.615-2.255,7.374-1.262,10.971c0.096-2.005,0.174-3.579,0.254-5.344c0.724,0.077,1.258,0.129,1.881,0.198
		v6.014C123.989,87.579,123.543,83.681,121.533,79.809 M214.336,106.164c-2.488-1.66-5.018-2.633-7.977-2.082
		c0.49,1.076,0.877,1.928,1.264,2.762c-0.902,0.577-1.564,0.999-2.229,1.403c0.053,0.086,0.104,0.163,0.146,0.249
		C208.475,107.712,211.4,106.938,214.336,106.164 M129.32,91.288v-5.877h1.875c0.082,1.497,0.168,2.874,0.241,4.25
		c0.925-3.476,0.302-6.754-1.179-10.016C127.978,82.649,127.711,88.929,129.32,91.288 M77.401,81.512
		c-1.871,2.892-1.944,7.091-0.134,9.241c-0.09-1.601-0.163-2.969-0.244-4.508h2.111c0.164,2.185,0.318,4.225,0.474,6.28
		c0.138-0.017,0.271-0.051,0.413-0.077C80.817,88.525,79.592,85.058,77.401,81.512 M174.496,81.435
		c-2.451,2.908-3.588,8.415-2.193,10.937c0.104-2.28,0.207-4.346,0.309-6.437h2.152v4.268
		C176.467,87.235,176.002,84.386,174.496,81.435 M83.434,77.606c-0.048-1.463-5.31-6.117-7.018-6.091
		C78.671,73.476,80.925,75.447,83.434,77.606"/>
	<path fill="#787265" d="M136.9,151.018c3.425-2.176,6.711-4.146,9.895-6.289c6.803-4.518,12.291-10.402,17.145-16.941
		c1.928-2.6,3.992-5.121,6.203-7.477c2.451-2.599,5.902-3.072,9.207-3.614c7.633-1.273,15.289-2.47,22.947-3.57
		c5.887-0.844,11.547,0.068,16.865,2.821c0.465,0.241,0.869,0.568,1.42,0.938c-1.73,2.1-4.07,2.848-6.273,3.785
		c-3.492,1.472-7.064,2.108-10.703,0.508c-0.98-0.447-1.979-0.955-2.762-1.669c-2.229-2.022-4.775-2.899-7.762-2.547
		c-1.928,0.224-3.855,0.431-5.807,0.921c6.219,2.271,12.457,4.517,18.68,6.78l0.033,0.696c-1.041,0.594-2.057,1.273-3.148,1.73
		c-4.646,1.943-9.432,2.822-14.154,0.559c-1.67-0.791-3.494-2.219-4.234-3.82c-2.631-5.714-7.613-5.076-11.254-1.523
		c-3.15,3.072-5.816,6.695-8.449,10.24c-4.146,5.602-9.086,10.334-14.679,14.404c-2.806,2.057-5.649,4.025-8.622,6.125
		c1.257,3.434,0.383,6.807-0.684,10.205c-0.314,1.016-0.236,2.324,0.121,3.33c1.807,5.301,2.331,10.695,1.923,16.227
		c-0.018,0.26,0.085,0.518,0.154,0.904c4.165,0.361,8.14,1.402,11.702,3.545c3.553,2.125,6.572,4.939,8.725,7.941
		c4.715,1.008,5.471,0.912,7.709,1.791c0.207,0.111,0.809,0.309,1.857,0.859c5.404,2.832,8.279,3.193,12.855,2.572
		c0.361-0.043,0.732-0.043,1.154-0.076c-1.963,3.209-5.508,4.578-9.689,3.492c-1.859-0.482-3.699-1.271-5.326-2.279
		c-2.916-1.781-5.91-2.643-9.283-1.781c-0.207,0.053-0.43,0-0.662,0c-5.688-8.373-13.053-13.553-23.447-12.365
		c0-3.32,0.203-6.504-0.056-9.67c-0.271-3.441-0.801-6.885-1.536-10.266c-0.563-2.615-0.865-5.084,0.246-7.623
		C138.514,156.912,138.023,153.943,136.9,151.018 M215.943,117.393c-1.875-1.395-7.348-2.427-9.73-1.851
		c0.67,0.198,1.367,0.404,2.211,0.646c-0.139,0.86-0.268,1.583-0.43,2.495c-1.928-0.344-3.719-0.653-5.748-1.016
		C204.982,120.903,212.105,120.593,215.943,117.393 M201.281,125.172c-3.596-1.326-6.848-2.522-10.084-3.718
		c-0.051,0.13-0.104,0.25-0.164,0.388c1.145,0.671,2.281,1.351,3.605,2.125c-0.412,0.74-0.738,1.368-1.145,2.1
		c-2.504-1.386-4.826-2.668-7.416-4.087C187.721,126.418,195.318,128.338,201.281,125.172"/>
	<path fill="#787265" d="M46.611,124.637c6.195-2.237,12.381-4.457,18.537-6.677c-3.631-1.944-10.084-1.445-13.177,1.136
		c-3.248,2.702-6.909,3.52-10.954,2.461c-3.26-0.852-6.307-2.194-9.258-4.475c0.801-0.499,1.334-0.895,1.932-1.17
		c4.975-2.314,10.158-3.339,15.647-2.538c8.027,1.179,16.056,2.435,24.114,3.468c6.13,0.774,10.389,4.13,13.74,9.068
		c6.982,10.309,16.072,18.242,27.078,23.99c0.24,0.129,0.481,0.258,0.709,0.395c0.134,0.086,0.241,0.217,0.456,0.389
		c-0.267,1.221-0.735,2.469-0.761,3.732c-0.03,1.602,0.013,3.297,0.559,4.76c0.934,2.547,1.364,4.965,0.495,7.605
		c-2.052,6.299-1.815,12.734-1.097,19.205c0.029,0.309,0,0.637,0,1.152c-4.785-0.602-9.284,0.104-13.488,2.469
		c-4.168,2.342-7.395,5.629-9.885,9.715c-0.663-0.061-1.252-0.061-1.83-0.172c-2.883-0.551-5.445,0.199-7.881,1.721
		c-2.366,1.488-4.9,2.393-7.735,2.736c-3.36,0.379-5.454-1.385-7.825-3.812c1.471,0.139,2.564,0.242,3.652,0.346
		c3.562,0.309,6.836-0.318,9.891-2.357c2.865-1.92,6.187-2.521,9.771-2.496c5.11-6.822,11.762-11.193,20.595-11.812
		c0-2.109-0.186-4.131,0.047-6.094c0.391-3.373,0.929-6.754,1.647-10.074c0.399-1.842,0.696-3.537-0.026-5.404
		c-1.135-2.926-1.553-5.971-0.494-8.975c-3.055-2.168-5.98-4.311-8.957-6.385c-6.867-4.766-12.287-10.91-17.097-17.689
		c-1.708-2.408-3.79-4.594-5.933-6.651c-1.037-1.007-2.53-1.669-3.928-2.178c-2.677-1.006-5.068-0.197-6.328,2.375
		c-2.707,5.534-7.379,6.969-12.873,6.231c-2.74-0.379-5.355-1.592-8.019-2.479c-0.478-0.164-0.86-0.568-1.296-0.869
		C46.629,125.068,46.624,124.861,46.611,124.637 M61.918,121.755c-0.516,0-1.08-0.13-1.526,0.017
		c-2.616,0.878-5.202,1.815-7.787,2.771c-0.46,0.164-0.874,0.456-1.425,0.774c5.951,2.986,13.526,1.291,15.161-3.441
		c-2.568,1.437-4.974,2.762-7.442,4.138c-0.439-0.842-0.732-1.376-1.119-2.108c1.506-0.766,2.831-1.463,4.147-2.159l-0.052-0.086
		L61.918,121.755z M47.644,115.551c-3.425-0.783-9.357,0.336-11.607,1.858c4.857,3.622,12.124,3.391,14.241,0.138
		c-1.997,0.361-3.89,0.697-5.938,1.059c-0.104-0.895-0.186-1.609-0.268-2.366C45.389,115.99,46.517,115.766,47.644,115.551"/>
	<path fill="#787265" d="M137.67,203.186c0.475-3.209,0.926-6.307,1.373-9.361c6.5-1.076,14.33,3.314,17.084,9.576
		c-3.824,4.553-4.586,9.68-2.096,15.445c-0.972,0.336-1.854,0.621-2.693,0.902c-2.576-3.699-2.349-9.051,0.577-15.891
		c-1.102-3.451-5.993-6.703-9.969-6.496c-0.253,1.385-0.511,2.805-0.813,4.43c5.749,4.785,7.775,11.109,7.268,18.621
		c-1.132,0.215-2.107,0.422-3.377,0.68C145.711,213.777,144.059,207.549,137.67,203.186"/>
	<path fill="#787265" d="M108.184,220.215c-1.166-0.174-2.139-0.328-3.191-0.482c-0.406-3.59-0.096-6.926,1.092-10.195
		c1.174-3.254,3.055-5.955,5.842-8.141c-0.283-1.539-0.559-3.012-0.821-4.414c-3.837-0.379-8.247,2.436-10.028,6.307
		c2.904,4.93,3.527,10.076,1.17,15.703c-0.98-0.275-1.875-0.508-2.951-0.791c2.432-5.645,1.683-10.721-2.198-15.195
		c1.722-5.766,10.102-10.576,16.767-9.568c0.467,2.969,0.945,6.006,1.427,9.111c-2.778,2.041-4.907,4.51-6.13,7.693
		C107.969,213.383,107.826,216.67,108.184,220.215"/>
	<path fill="#787265" d="M137.271,207.857c-5.095,3.408-7.852,8.191-8.011,14.457h-2.232c-0.344-5.715,0.864-10.791,5.312-14.672
		c-3.291-3.053-7.941-3.115-11.366-0.162c4.272,3.992,5.546,9.061,5.12,14.834c-0.719-0.035-1.347-0.078-2.131-0.129
		c-0.197-6.213-2.778-11.102-7.872-14.568C120.875,200.777,132.025,200.174,137.271,207.857"/>
	<path fill="#787265" d="M177.826,207.48c-2.15,1.84-4.121,2.984-6.686,1.893c-0.947-0.396-1.9-0.775-2.805-1.266
		c-2.107-1.102-4.242-1.213-6.117,0.258c-1.979,1.559-2.633,3.752-1.928,6.264c0.139,0.525,0.258,1.041,0.422,1.748
		c-0.879,0.369-1.738,0.723-2.582,1.074c-2.107-3.414-1.609-7.682,1.152-10.789c2.539-2.848,5.99-3.416,9.75-1.764
		c2.014,0.877,4.088,1.609,6.16,2.322C175.881,207.453,176.682,207.385,177.826,207.48"/>
	<path fill="#787265" d="M93.186,216.316c-0.176-1.918,0.005-4.664-0.615-6.418c-0.998-2.84-3.854-3.865-6.672-2.771
		c-1.007,0.387-1.953,0.93-2.955,1.342c-2.982,1.205-4.381,0.93-7.099-1.299c1.982-0.49,3.927-0.869,5.804-1.471
		c1.312-0.439,2.504-1.256,3.807-1.688c4.168-1.385,8.145,0.318,10.002,4.285c1.309,2.797,1.278,5.963-0.124,8.846"/>
	<path fill="#787265" d="M139.86,210.611c1.786,3.365,2.404,6.84,1.876,10.66c-0.844,0.139-1.618,0.285-2.371,0.406
		c-0.297-2.273-0.568-4.414-0.887-6.902c-2.812,2.049-3.613,4.691-4.422,7.453h-2.879
		C131.195,217.539,135.619,211.541,139.86,210.611"/>
	<path fill="#787265" d="M113.51,210.242c4.775,1.867,8.375,6.926,8.488,11.934c-0.9-0.078-1.781-0.154-2.831-0.24
		c-0.735-2.719-1.583-5.412-4.345-7.562c-0.366,2.33-0.688,4.396-1.042,6.684c-0.589-0.051-1.342-0.102-2.241-0.197
		C111.031,217.039,111.655,213.58,113.51,210.242"/>
</g>
</svg>
